<?xml version="1.0" encoding="UTF-8"?><svg id="Layer_1" xmlns="http://www.w3.org/2000/svg" xmlns:xlink="http://www.w3.org/1999/xlink" viewBox="0 0 193.09 166.47"><defs><style>.cls-1{fill:url(#linear-gradient-2);}.cls-2{fill:url(#linear-gradient-3);}.cls-3{fill:url(#linear-gradient);}.cls-4{fill:url(#linear-gradient-4);}</style><linearGradient id="linear-gradient" x1="41.33" y1="55.57" x2="144.12" y2="55.57" gradientTransform="matrix(1, 0, 0, 1, 0, 0)" gradientUnits="userSpaceOnUse"><stop offset="0" stop-color="#21d1fd"/><stop offset=".32" stop-color="#42a5fb"/><stop offset=".7" stop-color="#7b62fd"/><stop offset="1" stop-color="#a136fd"/></linearGradient><linearGradient id="linear-gradient-2" x1="0" y1="111.13" x2="193.09" y2="111.13" gradientTransform="matrix(1, 0, 0, 1, 0, 0)" gradientUnits="userSpaceOnUse"><stop offset="0" stop-color="#efc159"/><stop offset="1" stop-color="#fd9f55"/></linearGradient><linearGradient id="linear-gradient-3" x1="138.99" y1="133.88" x2="187.53" y2="133.88" xlink:href="#linear-gradient"/><linearGradient id="linear-gradient-4" x1="30.06" y1="143.65" x2="81.28" y2="143.65" gradientTransform="translate(-27.13 5.6) rotate(-3.87)" xlink:href="#linear-gradient"/></defs><polygon class="cls-3" points="41.33 111.13 98.28 0 144.12 88.91 122.03 105.29 99.32 63.9 41.33 111.13"/><polygon class="cls-1" points="0 155.58 99.32 73.62 119.3 111.65 193.09 66.68 112.52 147.6 88.91 102.45 0 155.58"/><polygon class="cls-2" points="138.99 127.24 155.58 160.1 187.53 158.02 159.4 107.66 138.99 127.24"/><path class="cls-4" d="M19.18,149.41l-5.29,17.07,30.96-.36,14.89-34.55c1.3-3.01,2.14-6.19,2.49-9.45h0l-43.05,27.28Z"/></svg>